<svg xmlns="http://www.w3.org/2000/svg" xmlns:xlink="http://www.w3.org/1999/xlink" viewBox="0 0 320 182"><defs><path id="a" d="M0 0h320v219H0z"/></defs><g fill="none" fill-rule="evenodd" transform="translate(0 -37)"><mask id="b" fill="#fff"><use xlink:href="#a"/></mask><g mask="url(#b)"><path fill="#FFF" d="M1.645 68.785c0-17.477 14.167-31.645 31.646-31.645 13.636 0 25.258 8.627 29.707 20.722a20.153 20.153 0 0 1 4.813-.584c11.121 0 20.137 9.016 20.137 20.138 0 .977-.073 1.936-.206 2.876h.206c11.123 0 20.138 9.016 20.138 20.138 0 11.122-9.016 20.138-20.138 20.138H1.645c-14.3 0-25.892-11.592-25.892-25.89 0-14.3 11.592-25.893 25.892-25.893"/><path fill="#A8A8A8" d="M994.247 195.433v-18.699l-5.755-11.507h-34.52l-2.877 5.753-5.754-11.507h-30.206l-12.947 23.015v12.945h-21.7V25.89h-85.366v102.44l-12.663-21.953h-30.398l-20.354 19.603V18.573H675.61v146.654h-12.194v3.502l-1.75-3.502h-34.523l-2.876 5.753-5.754-11.507h-30.207l-12.946 23.015v12.945h-24.14V55.158h-85.367v68.943l-10.224-17.724h-30.397L402.44 128.33v67.104h-4.879v-52.47h-60.975v52.47h-5.753v-18.699l-5.754-11.507h-34.52l-2.878 5.753-5.754-11.507H251.72l-12.946 23.015v12.945h-16.823V48.573h-56.098v121.201l-6.19-11.739h-31.645l-11.507 23.014v-66.166l-11.508-20.138-11.507 20.138v23.014h-44.59l-12.946 27.33.155 30.206H25.891v-17.26L18.7 165.226H0v43.152h1000v-12.946z"/><path fill="#FFF" d="M328.83 107.316c0-8.739-7.083-15.823-15.822-15.823-6.819 0-12.629 4.314-14.854 10.361a10.099 10.099 0 0 0-2.407-.292c-5.56 0-10.068 4.508-10.068 10.07 0 .488.036.967.103 1.437h-.103c-5.56 0-10.07 4.508-10.07 10.07 0 5.56 4.51 10.068 10.07 10.068h43.151c7.15 0 12.946-5.796 12.946-12.946 0-7.149-5.796-12.945-12.946-12.945"/><path fill="#C30" d="M77.674 182.488c-1.663 0-3.247.325-4.708.896-2.837-5.648-8.68-9.526-15.43-9.526-9.533 0-17.26 7.728-17.26 17.26a8.63 8.63 0 0 0-8.631 8.631v1.438a7.192 7.192 0 0 0 7.192 7.192h44.59a7.191 7.191 0 0 0 7.192-7.192v-5.754c0-7.149-5.796-12.945-12.945-12.945"/><path fill="#F90" d="M63.29 142.213s-23.015-7.731-23.015-28.768c0-21.036 14.384-34.522 14.384-34.522-9.11-15.103 1.439-37.398 8.631-37.398 7.191 0 14.384 7.012 14.384 25.892 0 18.879-8.631 34.52-8.631 34.52s11.508 2.698 11.508 14.385-17.261 25.89-17.261 25.89"/><path fill="#E64F0A" d="M69.947 128.956a62.205 62.205 0 0 0-.549-4.058l-.71.108s.197 1.602.32 4.023c.117 2.418.168 5.66-.2 8.833-.183 1.582-.473 3.144-.91 4.524-.444 1.374-1.064 2.547-1.764 3.293-.693.76-1.433 1.047-1.974 1.13-.025.008-.048.01-.072.016l-.798-24.75h-2.877l-.852 26.389a15.784 15.784 0 0 1-1.25-1.446c-1.528-1.957-3.012-5.066-3.987-8.372-1.002-3.3-1.552-6.754-1.833-9.35a58.512 58.512 0 0 1-.257-3.147l-.044-1.19-.815-.015s-.02.45-.026 1.226c-.005.776.01 1.883.075 3.21.133 2.655.485 6.2 1.325 9.689.812 3.488 2.183 6.905 3.774 9.218a17.993 17.993 0 0 0 2.163 2.635c.35.33.607.563.773.71l-1.923 59.624h8.63l-2.01-62.3c.145-.02.301-.047.476-.105.842-.175 2.063-.78 2.955-1.896.91-1.097 1.536-2.548 1.946-4.095.398-1.553.607-3.218.708-4.873.2-3.314-.039-6.591-.294-9.031"/><path fill="#FFF" d="M86.304 196.871h60.413v-2.876H86.304v2.876zm0-5.753h60.413v-1.438H86.304v1.438zm0-4.315h60.413v-1.438H86.304v1.438zm0-4.315h60.413v-1.438H86.304v1.438zm71.92 14.384h-8.63v-2.877h2.877a1.437 1.437 0 0 0 0-2.877h-2.877v-1.438h2.877a1.438 1.438 0 0 0 0-2.877h-2.877v-1.438h2.877a1.437 1.437 0 0 0 0-2.877h-2.877v-1.438h2.877a1.438 1.438 0 0 0 0-2.877h-71.92a1.438 1.438 0 1 0 0 2.877h2.876v1.438h-2.876a1.439 1.439 0 1 0 0 2.877h2.876v1.438h-2.876a1.438 1.438 0 1 0 0 2.877h2.876v1.438h-2.876a1.439 1.439 0 1 0 0 2.877h2.876v2.877h-8.63a1.438 1.438 0 1 0 0 2.877h8.63v11.507h2.877v-11.507h60.413v11.507h2.877v-11.507h8.63a1.438 1.438 0 1 0 0-2.877z"/><path fill="#E64F0A" d="M260.35 163.789c18.7 0 30.207-7.731 30.207-28.768S268.98 93.308 268.98 93.308c9.11-15.104 2.877-30.207-12.945-30.207-15.823 0-23.015 11.507-23.015 25.89 0 14.385 8.63 25.892 8.63 25.892s-12.946 11.328-12.946 23.015c0 11.687 12.947 25.89 31.646 25.89"/><path fill="#565656" d="M276.173 155.158l-1.438-1.438-4.316 3.356v-3.356h-1.438l-1.06 5.3-3.922 3.05-.771-16.98-5.754 2.876-.345 7.243-11.162-8.68-1.44 1.437 12.358 12.357-2.288 48.056h11.507l-1.876-41.276z"/><path fill="#C30" d="M277.611 176.734c-7.93 0-14.607 5.351-16.63 12.637a11.432 11.432 0 0 0-4.946-1.13c-1.35 0-2.639.245-3.842.671-2.578-3.87-6.98-6.424-11.98-6.424-7.945 0-14.385 6.44-14.385 14.384v8.63a5.754 5.754 0 0 0 5.754 5.754h57.536a5.754 5.754 0 0 0 5.754-5.754v-11.507c0-9.533-7.729-17.26-17.26-17.26"/><path fill="#FFF" d="M195.122 63.207v7.317l7.317 2.44-7.317 9.755v-7.317l-7.317-2.439z"/><path fill="#F7CAB5" d="M178.386 114.369l-1.557-3.113v-6.097a3.658 3.658 0 0 0-3.658-3.66h-4.878a3.66 3.66 0 0 0-3.66 3.66v23.17h4.879v-4.878h1.22a6.097 6.097 0 0 0 6.097-6.098v-1.22h.466a1.22 1.22 0 0 0 1.09-1.764"/><path fill="#565656" d="M171.951 110.036a1.22 1.22 0 1 0 2.44 0 1.22 1.22 0 0 0-2.44 0"/><path fill="#E64F0A" d="M169.512 99.06a8.483 8.483 0 0 0-3.677.843 4.877 4.877 0 0 0-9.737.378 4.878 4.878 0 0 0 4.878 4.878c.123 0 .243-.01.363-.02a8.527 8.527 0 0 0-.363 2.459v6.097a4.877 4.877 0 0 0 4.878 4.878v-7.53a3.63 3.63 0 0 0 1.22.213 3.658 3.658 0 0 0 3.658-3.658h7.317a8.537 8.537 0 0 0-8.537-8.537"/><path fill="#F7CAB5" d="M163.415 111.256a2.439 2.439 0 1 0 4.878 0 2.439 2.439 0 0 0-4.878 0m3.658 103.658l-3.658-4.878 3.658-35.366h-7.317v36.586l4.878 3.658zm10.976 0h2.439l-3.66-4.878V174.67h-7.316l3.659 36.586z"/><path fill="#000" d="M159.756 183.207h17.073v-24.39h-17.073zm13.414 28.049v7.317h2.439v-2.439l4.879 2.44h4.878v-1.22l-4.878-2.44h-2.44z"/><path fill="#C30" d="M159.756 158.817v-25.61a4.879 4.879 0 0 1 4.878-4.878h5.186a4.877 4.877 0 0 1 4.553 3.127l3.657 9.507a5.307 5.307 0 0 1-1.201 5.66v12.194"/><path fill="#000" d="M159.756 211.256v7.317h2.439v-2.439l4.878 2.44h4.878v-1.22l-4.878-2.44h-2.44z"/><path fill="#F7CAB5" d="M167.935 171.37l-2.082-2.083v-36.08a2.439 2.439 0 0 0-4.877 0v41.463a2.439 2.439 0 0 0 4.877 0v-1.934l.357.358a1.222 1.222 0 0 0 1.725 0 1.219 1.219 0 0 0 0-1.725"/></g></g></svg>