<svg xmlns="http://www.w3.org/2000/svg" viewBox="0 0 30 30"><path fill="#C30" fill-rule="evenodd" d="M18.316 3.363C17.649 2.43 15.919.765 15.053.066 14.976 0 14.937 0 14.898 0c-.119 0-.235.1-.235.2.119 1.264.119 4.494-2.555 8.19-2.083 2.863-4.126 5.727-4.793 8.758A12.45 12.45 0 0 0 7 19.878c0 4.262 2.319 7.925 5.698 9.655.393.2.667.333.943.434.04 0 .078.033.12.033.118 0 .235-.1.235-.2 0-.065-.04-.1-.078-.133-1.337-1.1-2.24-3.196-2.24-5.726 0-5.128 3.025-7.725 3.025-7.725s4.952 2.897 2.555 8.39c0 .167.119.266.235.266 1.611-.3 3.227-2.714 3.227-2.714 1.45-2.064 2.392-5.727 1.83-10.238-.786-3.829-2.505-6.426-4.234-8.557z"/></svg>